<svg width="1500" height="500" viewBox="0 0 1500 500" fill="none" xmlns="http://www.w3.org/2000/svg">
  <defs>
    <linearGradient id="bg" x1="120" y1="40" x2="1380" y2="460" gradientUnits="userSpaceOnUse">
      <stop stop-color="#051017"/>
      <stop offset="1" stop-color="#0A1F2C"/>
    </linearGradient>
    <linearGradient id="stroke" x1="120" y1="70" x2="1380" y2="430" gradientUnits="userSpaceOnUse">
      <stop stop-color="#00FFA3"/>
      <stop offset="1" stop-color="#00D4FF"/>
    </linearGradient>
    <linearGradient id="mint" x1="0" y1="0" x2="1" y2="1">
      <stop stop-color="#00FFA3"/>
      <stop offset="1" stop-color="#00D4FF"/>
    </linearGradient>
    <filter id="softGlow" x="0" y="0" width="1500" height="500" filterUnits="userSpaceOnUse" color-interpolation-filters="sRGB">
      <feGaussianBlur stdDeviation="14" result="blur"/>
      <feMerge>
        <feMergeNode in="blur"/>
        <feMergeNode in="SourceGraphic"/>
      </feMerge>
    </filter>
  </defs>

  <rect width="1500" height="500" rx="0" fill="url(#bg)"/>

  <g opacity="0.5">
    <circle cx="1310" cy="84" r="120" fill="#00D4FF"/>
    <circle cx="1210" cy="390" r="160" fill="#00FFA3"/>
    <circle cx="190" cy="420" r="140" fill="#00D4FF"/>
  </g>

  <g opacity="0.16" stroke="url(#stroke)">
    <path d="M60 404C220 346 330 436 492 378C628 330 770 238 932 280C1104 326 1210 424 1442 366" stroke-width="3"/>
    <path d="M60 338C220 280 352 376 520 320C692 264 790 164 960 206C1134 250 1240 352 1442 304" stroke-width="2"/>
    <path d="M60 270C240 214 380 288 550 236C730 178 840 102 1002 142C1188 188 1278 280 1442 232" stroke-width="2"/>
  </g>

  <g filter="url(#softGlow)">
    <rect x="96" y="96" width="170" height="150" rx="28" fill="none" stroke="url(#stroke)" stroke-width="12"/>
    <rect x="126" y="74" width="22" height="34" rx="11" fill="url(#mint)"/>
    <rect x="214" y="74" width="22" height="34" rx="11" fill="url(#mint)"/>
    <path d="M126 220L154 190L178 208L210 174L236 193" stroke="url(#mint)" stroke-width="11" stroke-linecap="round" stroke-linejoin="round"/>
  </g>

  <text x="320" y="190" fill="#E8FCFF" font-size="86" font-weight="800" font-family="Inter, Arial, sans-serif" letter-spacing="1.5">Wallet Intel</text>
  <text x="322" y="252" fill="#9CD6E8" font-size="34" font-weight="500" font-family="Inter, Arial, sans-serif">Track wallets. Surface signal. Move faster.</text>

  <g>
    <rect x="320" y="296" width="190" height="56" rx="18" fill="none" stroke="url(#stroke)" stroke-width="2"/>
    <text x="348" y="332" fill="#D8FCFF" font-size="24" font-weight="600" font-family="Inter, Arial, sans-serif">SOLANA</text>

    <rect x="532" y="296" width="254" height="56" rx="18" fill="none" stroke="url(#stroke)" stroke-width="2"/>
    <text x="560" y="332" fill="#D8FCFF" font-size="24" font-weight="600" font-family="Inter, Arial, sans-serif">ON-CHAIN ANALYTICS</text>

    <rect x="808" y="296" width="164" height="56" rx="18" fill="none" stroke="url(#stroke)" stroke-width="2"/>
    <text x="842" y="332" fill="#D8FCFF" font-size="24" font-weight="600" font-family="Inter, Arial, sans-serif">FREE</text>
  </g>
</svg>
